PathFileType  4	(X/Y/Z) C:\Users\wagnerel85475\Documents\Thesis\opencap-core\Data\3375ffbc-daeb-4a43-b4f7-ac9899cd4c71\MarkerData\PreAugmentation
DataRate	CameraRate	NumFrames	NumMarkers	Units	OrigDataRate	OrigDataStartFrame	OrigNumFrames
60.0	60.0	17	20	m	60.0	617	822
Frame#	Time	Neck			RShoulder			RElbow			RWrist			LShoulder			LElbow			LWrist			midHip			RHip			RKnee			RAnkle			LHip			LKnee			LAnkle			LBigToe			LSmallToe			LHeel			RBigToe			RSmallToe			RHeel			
		X1	Y1	Z1	X2	Y2	Z2	X3	Y3	Z3	X4	Y4	Z4	X5	Y5	Z5	X6	Y6	Z6	X7	Y7	Z7	X8	Y8	Z8	X9	Y9	Z9	X10	Y10	Z10	X11	Y11	Z11	X12	Y12	Z12	X13	Y13	Z13	X14	Y14	Z14	X15	Y15	Z15	X16	Y16	Z16	X17	Y17	Z17	X18	Y18	Z18	X19	Y19	Z19	X20	Y20	Z20	

617	10.2666667	0.6232700	1.3914300	-0.0560200	0.6347300	1.3912500	0.1240300	0.8916300	1.1968000	0.2015000	1.1676700	1.2319800	0.0683700	0.6293400	1.3860800	-0.2425000	0.9036100	1.1981000	-0.2573900	1.1874500	1.2214400	-0.1363600	0.5610000	0.8344000	-0.0482900	0.5735300	0.8354200	0.0704200	0.5655600	0.3418400	0.0807100	0.5182300	-0.1832100	0.1164400	0.5676500	0.8292100	-0.1685900	0.5843800	0.3414400	-0.1841600	0.5306300	-0.1844900	-0.2448400	0.7341200	-0.2381700	-0.3224800	0.7094500	-0.2282300	-0.3480600	0.4930500	-0.2319200	-0.2367000	0.6948200	-0.2393400	0.2369600	0.6601800	-0.2302500	0.2517500	0.5094600	-0.2180700	0.0963300
618	10.2833333	0.6007400	1.3894500	-0.0647200	0.6169500	1.3925900	0.1184000	0.8908200	1.1969800	0.2023200	1.1551200	1.2325600	0.0714400	0.6186200	1.3837300	-0.2426600	0.9013000	1.1972500	-0.2618000	1.1829400	1.2232500	-0.1344300	0.5764500	0.8343500	-0.0513000	0.5828200	0.8361000	0.0701000	0.5654900	0.3371400	0.0805400	0.5197900	-0.1788800	0.1156600	0.5837900	0.8310100	-0.1715300	0.5836300	0.3424900	-0.1793300	0.5302100	-0.1826900	-0.2451600	0.7388000	-0.2360300	-0.3244900	0.7089400	-0.2262100	-0.3476700	0.4928900	-0.2319500	-0.2365800	0.6953400	-0.2392600	0.2368300	0.6598500	-0.2322600	0.2519400	0.5155500	-0.2143300	0.0931200
619	10.3000000	0.5941100	1.3901800	-0.0666700	0.6106800	1.3918400	0.1164100	0.8920900	1.1970400	0.2014900	1.1373200	1.2324100	0.0681300	0.6076600	1.3843500	-0.2470700	0.9096000	1.1890500	-0.2596000	1.1754400	1.2205800	-0.1340700	0.5943400	0.8356000	-0.0497600	0.5904400	0.8417500	0.0719400	0.5700300	0.3357300	0.0773500	0.5181600	-0.1788900	0.1164400	0.5951600	0.8318500	-0.1715800	0.5842500	0.3398200	-0.1781700	0.5307100	-0.1846400	-0.2448300	0.7393200	-0.2343400	-0.3243100	0.7094100	-0.2262000	-0.3477400	0.4930300	-0.2320100	-0.2367100	0.6948700	-0.2394500	0.2369300	0.6600200	-0.2322200	0.2521000	0.5152500	-0.2143800	0.0932500
620	10.3166667	0.5946000	1.3876100	-0.0669300	0.6047100	1.3909000	0.1145500	0.8522800	1.2001900	0.1901800	1.1334200	1.2271200	0.0707200	0.5965000	1.3822600	-0.2520000	0.8938800	1.1886900	-0.2620500	1.1705200	1.2179000	-0.1362900	0.5881200	0.8377900	-0.0470400	0.5944500	0.8397700	0.0743500	0.5638500	0.3413800	0.0756000	0.5183200	-0.1785900	0.1164800	0.5949500	0.8324000	-0.1714800	0.5997700	0.3702000	-0.1863800	0.5287200	-0.1772900	-0.2449300	0.7451000	-0.2364900	-0.3230700	0.7208700	-0.2302700	-0.3444500	0.4898400	-0.2272600	-0.2367000	0.6948200	-0.2406600	0.2372700	0.6656200	-0.2299200	0.2535500	0.5156000	-0.2143800	0.0931400
621	10.3333333	0.5938700	1.3839000	-0.0666900	0.6045300	1.3899200	0.1145300	0.8433600	1.1979000	0.1902500	1.1176400	1.2222200	0.0756100	0.5856600	1.3806300	-0.2517100	0.8909900	1.1836400	-0.2642100	1.1714100	1.2118400	-0.1359800	0.6164100	0.8399800	-0.0505600	0.6083200	0.8458400	0.0778100	0.5691000	0.3446700	0.0728000	0.5196900	-0.1790400	0.1156700	0.6062300	0.8330200	-0.1717700	0.6096100	0.3833700	-0.1925800	0.5286600	-0.1801000	-0.2451800	0.7427800	-0.2351800	-0.3260100	0.7167100	-0.2268500	-0.3465000	0.4940500	-0.2256300	-0.2340900	0.7001900	-0.2389300	0.2389300	0.6658400	-0.2300400	0.2537200	0.5155600	-0.2148200	0.0932200
622	10.3500000	0.5835900	1.3795900	-0.0666400	0.5921800	1.3873200	0.1107100	0.8088000	1.1952400	0.1806300	1.1170200	1.2177300	0.0716700	0.5747300	1.3804400	-0.2519100	0.8825300	1.1789100	-0.2706600	1.1624400	1.2092500	-0.1362100	0.6262200	0.8435900	-0.0509800	0.6173700	0.8464800	0.0774900	0.5686600	0.3399300	0.0722400	0.5191000	-0.1809400	0.1160500	0.6115600	0.8340100	-0.1696900	0.6079800	0.3828500	-0.1923100	0.5287600	-0.1829400	-0.2454900	0.7504400	-0.2350200	-0.3251600	0.7179800	-0.2289600	-0.3473200	0.4864300	-0.2303600	-0.2358200	0.7002300	-0.2402600	0.2392100	0.6653200	-0.2317100	0.2539400	0.5165900	-0.2172500	0.0926300
623	10.3666667	0.5821200	1.3799700	-0.0710000	0.5794800	1.3810400	0.1067900	0.8153800	1.1845600	0.1816500	1.1092700	1.2121700	0.0760300	0.5745900	1.3789400	-0.2517600	0.8800300	1.1726200	-0.2683800	1.1460400	1.2001600	-0.1398100	0.6274300	0.8388900	-0.0510500	0.6244100	0.8475800	0.0745300	0.5698900	0.3328900	0.0664400	0.5189300	-0.1811600	0.1160500	0.6227900	0.8307000	-0.1697000	0.5946900	0.3672200	-0.1922300	0.5292100	-0.1886100	-0.2461300	0.7484100	-0.2363300	-0.3284600	0.7096600	-0.2323900	-0.3522700	0.4851500	-0.2333500	-0.2357200	0.6939200	-0.2402100	0.2381600	0.6655000	-0.2318000	0.2541000	0.5164100	-0.2174900	0.0927500
624	10.3833333	0.5778200	1.3753000	-0.0687500	0.5686200	1.3777600	0.1075700	0.8031000	1.1872500	0.1788200	1.1084500	1.2045200	0.0721700	0.5747000	1.3762700	-0.2519500	0.8774700	1.1686100	-0.2683800	1.1414700	1.1973900	-0.1379300	0.6378900	0.8384000	-0.0469400	0.6385000	0.8422200	0.0714800	0.5755700	0.3379700	0.0632900	0.5191000	-0.1810200	0.1160300	0.6336400	0.8322400	-0.1654000	0.5833800	0.3409300	-0.1790500	0.5299600	-0.1849700	-0.2454900	0.7492000	-0.2362000	-0.3287700	0.7095000	-0.2341300	-0.3526900	0.4858300	-0.2335100	-0.2349700	0.7002500	-0.2403500	0.2392200	0.6606600	-0.2334900	0.2565900	0.5165700	-0.2172300	0.0926400
625	10.4000000	0.5822000	1.3713600	-0.0709800	0.5734200	1.3724300	0.1049800	0.8099600	1.1752200	0.1800000	1.1014400	1.1991200	0.0808100	0.5746800	1.3722500	-0.2563200	0.8702600	1.1623300	-0.2683900	1.1461400	1.1900200	-0.1397400	0.6442100	0.8345400	-0.0492800	0.6504900	0.8418200	0.0660600	0.5687700	0.3311100	0.0671800	0.5190400	-0.1813800	0.1160200	0.6553900	0.8281700	-0.1701400	0.5843000	0.3438300	-0.1792700	0.5297700	-0.1871500	-0.2458300	0.7448800	-0.2402200	-0.3314400	0.7100700	-0.2361600	-0.3523900	0.4863300	-0.2378100	-0.2396500	0.6892200	-0.2420200	0.2408200	0.6546900	-0.2373600	0.2555700	0.5156600	-0.2150800	0.0932200
626	10.4166667	0.5835000	1.3620700	-0.0711200	0.5793300	1.3660600	0.1024100	0.7862500	1.1783100	0.1735100	1.0836000	1.1891800	0.0779500	0.5749200	1.3632100	-0.2565100	0.8682000	1.1597600	-0.2684900	1.1366800	1.1885200	-0.1441800	0.6484000	0.8352800	-0.0519300	0.6535900	0.8437600	0.0636700	0.5732400	0.3343100	0.0648200	0.5191600	-0.1811900	0.1159900	0.6655700	0.8271500	-0.1751700	0.5778000	0.3379300	-0.1810600	0.5300100	-0.1850900	-0.2454900	0.7493100	-0.2361800	-0.3287500	0.7145600	-0.2343700	-0.3500700	0.4801900	-0.2417700	-0.2421000	0.6896800	-0.2439700	0.2403400	0.6543600	-0.2371800	0.2554100	0.5106600	-0.2168000	0.0957100
627	10.4333333	0.5712000	1.3584100	-0.0751300	0.5681000	1.3609700	0.1031700	0.7762300	1.1732400	0.1694200	1.0746500	1.1741000	0.0782600	0.5750200	1.3549300	-0.2563000	0.8653300	1.1503700	-0.2705700	1.1330600	1.1824200	-0.1457500	0.6542100	0.8333600	-0.0544200	0.6553600	0.8442400	0.0633000	0.5735400	0.3416300	0.0655400	0.5135700	-0.1810500	0.1138400	0.6605400	0.8241800	-0.1771600	0.5840900	0.3412900	-0.1783300	0.5304100	-0.1801100	-0.2448900	0.7451100	-0.2343300	-0.3303600	0.7101000	-0.2301400	-0.3513300	0.4869700	-0.2294000	-0.2344200	0.6903900	-0.2456300	0.2450400	0.6604200	-0.2371000	0.2574900	0.5102600	-0.2194100	0.0909400
628	10.4500000	0.5660100	1.3517600	-0.0774900	0.5682900	1.3576200	0.1031200	0.7492100	1.1761500	0.1698300	1.0648000	1.1727200	0.0749800	0.5696700	1.3503600	-0.2588100	0.8632800	1.1449500	-0.2707300	1.1286000	1.1750800	-0.1440900	0.6536600	0.8293900	-0.0545400	0.6537600	0.8372600	0.0635200	0.5732100	0.3347300	0.0653300	0.5138200	-0.1810600	0.1137900	0.6656100	0.8208000	-0.1796300	0.5845700	0.3393900	-0.1779000	0.5304000	-0.1801100	-0.2448800	0.7444200	-0.2379500	-0.3309500	0.7096000	-0.2320800	-0.3515900	0.4867500	-0.2291600	-0.2342900	0.6859600	-0.2471400	0.2476100	0.6601400	-0.2369700	0.2573600	0.5166100	-0.2174000	0.0925800
629	10.4666667	0.5591200	1.3483200	-0.0794800	0.5676200	1.3515100	0.1032000	0.7466100	1.1579100	0.1763600	1.0698500	1.1668200	0.0764800	0.5637800	1.3487400	-0.2609700	0.8508000	1.1396300	-0.2817900	1.1338300	1.1718300	-0.1415900	0.6595500	0.8253000	-0.0571200	0.6556400	0.8335400	0.0631800	0.5736200	0.3417500	0.0654800	0.5128400	-0.1830600	0.1142400	0.6658000	0.8181400	-0.1796200	0.5864200	0.3368500	-0.1774600	0.5304200	-0.1801800	-0.2448700	0.7448100	-0.2382700	-0.3310900	0.7101700	-0.2340900	-0.3512900	0.4919900	-0.2294900	-0.2325500	0.6951300	-0.2439600	0.2423300	0.6593000	-0.2375100	0.2532600	0.5163300	-0.2174000	0.0927700
630	10.4833333	0.5540300	1.3481500	-0.0818800	0.5618300	1.3482300	0.1012200	0.7395800	1.1585000	0.1751100	1.0557900	1.1570500	0.0756300	0.5527400	1.3484800	-0.2612600	0.8489500	1.1331600	-0.2819800	1.1214200	1.1695500	-0.1356200	0.6589500	0.8277200	-0.0571500	0.6590800	0.8332100	0.0607200	0.5793100	0.3332300	0.0664800	0.5130200	-0.1829200	0.1141800	0.6656300	0.8225600	-0.1799700	0.5901900	0.3360000	-0.1802800	0.5301300	-0.1825700	-0.2451700	0.7443600	-0.2379900	-0.3309800	0.7146000	-0.2343900	-0.3493100	0.4862600	-0.2313200	-0.2346000	0.7013800	-0.2441100	0.2434400	0.6662000	-0.2370800	0.2585400	0.5157300	-0.2146300	0.0930500
631	10.5000000	0.5475900	1.3463000	-0.0837300	0.5614500	1.3453700	0.1013000	0.7363300	1.1583500	0.1772700	1.0556900	1.1508600	0.0753100	0.5471400	1.3466500	-0.2633700	0.8461300	1.1312800	-0.2840500	1.1172600	1.1631500	-0.1414000	0.6648700	0.8298800	-0.0598800	0.6611000	0.8357400	0.0602400	0.5798500	0.3335900	0.0663600	0.5136600	-0.1812300	0.1138000	0.6658400	0.8242300	-0.1799800	0.5852200	0.3318400	-0.1823700	0.5301400	-0.1825800	-0.2451800	0.7468100	-0.2311400	-0.3288800	0.7115600	-0.2305800	-0.3498400	0.4860600	-0.2336200	-0.2350900	0.6903700	-0.2457500	0.2450600	0.6603800	-0.2371500	0.2575200	0.5163700	-0.2134100	0.0927400
632	10.5166667	0.5483500	1.3459500	-0.0840200	0.5606300	1.3463500	0.0966300	0.7405900	1.1518600	0.1795700	1.0565500	1.1476200	0.0798700	0.5471500	1.3443400	-0.2682900	0.8440800	1.1289100	-0.2841900	1.1168600	1.1632400	-0.1419800	0.6691300	0.8308000	-0.0622600	0.6593700	0.8351100	0.0605200	0.5847200	0.3363200	0.0636200	0.5187800	-0.1792600	0.1111700	0.6656300	0.8225900	-0.1800200	0.5849500	0.3303400	-0.1824900	0.5298300	-0.1807000	-0.2454800	0.7358700	-0.2407800	-0.3342200	0.7160400	-0.2313900	-0.3478000	0.4793800	-0.2351500	-0.2378600	0.6956000	-0.2461600	0.2418600	0.6602500	-0.2411700	0.2573200	0.5173900	-0.2157400	0.0921100
633	10.5333333	0.5475000	1.3463200	-0.0838100	0.5553200	1.3453100	0.0993200	0.7260100	1.1529900	0.1781700	1.0514800	1.1449100	0.0777600	0.5414700	1.3447400	-0.2657700	0.8462900	1.1267100	-0.2840200	1.1099700	1.1617600	-0.1371500	0.6694500	0.8303800	-0.0669200	0.6660500	0.8361800	0.0576100	0.5850300	0.3304400	0.0637900	0.5186000	-0.1793700	0.1112300	0.6656700	0.8199900	-0.1845300	0.5788100	0.3313800	-0.1851700	0.5298100	-0.1806100	-0.2455000	0.7362100	-0.2409600	-0.3343500	0.7163200	-0.2312700	-0.3479200	0.4854600	-0.2314500	-0.2354700	0.6954100	-0.2464200	0.2419500	0.6606500	-0.2394000	0.2571100	0.5172200	-0.2159400	0.0922900
